<svg width="64" height="51" viewBox="0 0 64 51" fill="none" xmlns="http://www.w3.org/2000/svg">
<path d="M58.9138 6.63437C56.5254 2.38838 52.2794 0 47.5025 0H15.9226C11.1459 0 6.89975 2.38838 4.51138 6.63437C1.59225 11.9419 0 17.7802 0 23.8839C0 38.4796 5.83825 50.4216 13.2689 50.4216C17.2495 50.4216 20.4341 46.7064 22.8225 39.0104C23.0879 37.9489 24.1494 37.1527 25.4763 37.1527H38.4798C39.5413 37.1527 40.6028 37.9489 41.1335 39.0104C43.5219 46.7064 46.7064 50.4216 50.6871 50.4216C58.1178 50.4216 63.956 38.4796 63.956 23.8839C63.4253 17.7801 61.833 11.9419 58.9138 6.63437ZM23.884 21.2301H21.2303V23.8839C21.2303 25.4761 20.1688 26.5376 18.5765 26.5376C16.9843 26.5376 15.9228 25.4761 15.9228 23.8839V21.2301H13.269C11.6768 21.2301 10.6153 20.1686 10.6153 18.5764C10.6153 16.9841 11.6768 15.9226 13.269 15.9226H15.9228V13.2689C15.9228 11.6766 16.9843 10.6151 18.5765 10.6151C20.1688 10.6151 21.2303 11.6766 21.2303 13.2689V15.9226H23.884C25.4763 15.9226 26.5378 16.9841 26.5378 18.5764C26.5378 20.1686 25.4763 21.2301 23.884 21.2301ZM41.3989 26.5376C39.2759 26.5376 37.4183 24.68 37.4183 22.557C37.4183 20.434 39.2759 18.5764 41.3989 18.5764C43.5219 18.5764 45.3795 20.434 45.3795 22.557C45.3795 24.68 43.2565 26.5376 41.3989 26.5376ZM49.0949 18.5764C47.2373 18.5764 45.1143 16.7187 45.1143 14.5957C45.1143 12.4728 47.2373 10.6151 49.0949 10.6151C50.9525 10.6151 53.0755 12.4728 53.0755 14.5957C53.0755 16.7187 51.2179 18.5764 49.0949 18.5764Z" fill="#F72585"/>
</svg>
